<svg id="Layer_1" data-name="Layer 1" xmlns="http://www.w3.org/2000/svg" viewBox="0 0 1401.82 1080"><defs><style>.cls-1{fill:#fff;}</style></defs><path class="cls-1" d="M296.37,577.9l-149.2-439,185.4-1,72.81,268.56,80-247,139.36,19.7,57.75,224L730,194l96.89,13.7-84.67,316.9L615.05,539.78l-59.27-213-66,228Z"/><path class="cls-1" d="M848.45,511.86V210.72l82.81,11.7V502Z"/><path class="cls-1" d="M962.4,498.22V226.82l68.05,9.62v85.74l58.89-77.42,58.94,8.33L1083,341.52l69,134-59.46,7.12-49.92-91.75-12.14,15.93v83.24Z"/><path class="cls-1" d="M1163.1,474.21v-219l44.68,6.31V468.87Z"/><path class="cls-1" d="M337.67,758,299.15,593.19l31.61-3.32,26.71,125.3,31.78-131.44,39.34-4.13,36.2,140.26L501,572l46.17-4.84L488.36,770.78,442,766.84l-34.11-134L376,761.24Z"/><path class="cls-1" d="M568.92,777.63V564.86l209.25-22v43l-156.4,11.36v52.4l140.52-3.92v42.17l-140.52-.59v56.8l159.82,8.42v43.14Z"/><path class="cls-1" d="M827.17,799.59V537.75l182.62-19.18c101.55-10.66,176.37,8.91,176.37,65.62v5.12c0,27.43-27,54.07-75.58,68.08,62.38,11.05,100.9,40.45,100.9,76.3v4.72c0,58-83.21,86.78-186.78,78Zm79.16-156.28,94.11-2.53c50-1.34,70.76-14,70.76-38.36v-4.34c0-23.88-23.58-32.58-71.42-29.08l-93.45,6.84Zm0,116.6,108.17,5.75c48.76,2.6,78-9.92,78-33.23v-4.84c0-24.19-26.37-37.51-77.33-37.75l-108.85-.52Z"/><path class="cls-1" d="M496.66,942.63V873.69H515v68.47c0,19.15,8.79,29,26.69,29,17.74,0,26.85-9.89,26.85-29.2V873.69h18.22v68.78c0,28.1-15.24,44.75-45.07,44.75C512.05,987.22,496.66,970.89,496.66,942.63Z"/><path class="cls-1" d="M712.49,985.17,673.08,873.69h19.47l30.3,90.92,30-90.92h18.84L732.43,985.17Z"/><path class="cls-1" d="M858.6,985.17V873.69h26.86l31.24,88.87,31.09-88.87h25.9V985.17H956.11V894.89l-32,90.28H908.69L876.5,894.74v90.43Z"/><polygon class="cls-1" points="452.16 948.59 165.57 948.59 165.57 366.37 185.21 366.37 185.21 928.96 452.16 928.96 452.16 948.59"/><polygon class="cls-1" points="1296.2 948.59 1020.3 948.59 1020.3 928.96 1276.56 928.96 1276.56 138.04 685.4 138.04 685.4 118.41 1296.2 118.41 1296.2 948.59"/></svg>